<svg version="1.1" width="600" height="74" viewBox="0 0 600 74" xmlns="http://www.w3.org/2000/svg"><defs><linearGradient id="linearGradient4169" x2="709.59" y1="912.13" y2="911.12" gradientTransform="translate(0,93.985)" gradientUnits="userSpaceOnUse"><stop stop-color="#44a0e9" offset="0"/><stop stop-color="#44a0e9" stop-opacity="0" offset="1"/></linearGradient></defs><g transform="matrix(.8 0 0 .8 -.0012562 -767.89)"><path d="m0 959.86h750v92.5h-750z" fill="url(#linearGradient4169)"/><g transform="matrix(1.0412 0 0 1.0266 -.46119 -34.226)" fill="#fff" stroke-width="1px"><path d="m71.244 1030h-7.4463v-15.942c0-1.9694-0.34994-3.4424-1.0498-4.4189-0.69987-0.9929-1.8148-1.4893-3.3447-1.4893-2.0833 0-3.5889 0.6999-4.5166 2.0996-0.92774 1.3835-1.3916 3.6865-1.3916 6.9092v12.842h-7.4463v-27.295h6.7799l-0.09045 3.4912h0.41504c0.83008-1.3183 1.9694-2.3112 3.418-2.9785 1.4648-0.6836 3.125-1.0254 4.9805-1.0254 3.1738 0 5.5827 0.8626 7.2266 2.5879 1.6439 1.709 2.4658 4.183 2.4658 7.4219z"/><path d="m84.892 1016.3q0 4.0528 1.3184 6.128 1.3428 2.0752 4.3457 2.0752 2.9785 0 4.2725-2.0508 1.3184-2.0752 1.3184-6.1524 0-4.0527-1.3184-6.0791-1.3184-2.0263-4.3213-2.0263-2.9785 0-4.2969 2.0263-1.3184 2.002-1.3184 6.0791zm18.872 0q0 6.6651-3.5156 10.425-3.5156 3.7598-9.79 3.7598-3.9307 0-6.9336-1.709-3.0029-1.7334-4.6143-4.956-1.6113-3.2227-1.6113-7.5196 0-6.6894 3.4912-10.4 3.4912-3.7109 9.8145-3.7109 3.9307 0 6.9336 1.709t4.6143 4.9072q1.6113 3.1983 1.6113 7.4951z"/><path d="m125.15 1002.2c1.0091 0 1.8473 0.073 2.5146 0.2197l-0.56152 6.9824c-0.60221-0.1627-1.3346-0.2441-2.1973-0.2441-2.3763 0-4.2318 0.6104-5.5664 1.8311-1.3184 1.2207-1.9775 2.9296-1.9775 5.1269v13.892h-7.4463v-27.295h6.7311l7e-3 4.5898h0.36621c0.84635-1.5299 1.9857-2.7588 3.418-3.6865 1.4486-0.944 3.0192-1.416 4.7119-1.416z"/><path d="m147.76 1008.3h-6.4453v21.704h-7.4463v-21.704h-4.1016v-5.5568l4.1016-0.034v-2.002c0-3.1087 0.76497-5.3792 2.2949-6.8115s3.9795-2.1484 7.3486-2.1484c2.5716 0 4.3127 0.2595 6.3146 0.4095l-0.0589 6.2682c-2.2978-0.35809-5.5917-0.59914-7.745 0.18264-0.47201 0.61849-0.70801 1.416-0.70801 2.3926v1.709h6.4453z"/><path d="m159.48 1030h-7.4463v-27.295h7.4463z"/><path d="m182.23 1030.5q-4.8096 0-7.544-3.4912h-0.39062q0.39062 3.418 0.39062 3.9551v11.06h-7.4463v-39.307h6.0547l1.0498 3.54h0.34179q2.6123-4.0527 7.7393-4.0527 4.834 0 7.5684 3.7353 2.7344 3.7354 2.7344 10.376 0 4.3701-1.294 7.5928-1.2695 3.2227-3.6377 4.9072-2.3682 1.6846-5.5664 1.6846zm-2.1973-22.339q-2.7588 0-4.0283 1.709-1.2695 1.6846-1.3184 5.5908v0.8057q0 4.3945 1.294 6.2988 1.3184 1.9043 4.1504 1.9043 5.0049 0 5.0049-8.2519 0-4.0284-1.2451-6.0303-1.2207-2.0264-3.8574-2.0264z"/><path d="m209.96 1030.5q-12.744 0-12.744-13.989 0-6.958 3.4668-10.62 3.4668-3.6865 9.9365-3.6865 4.7363 0 8.4961 1.8555l-2.1973 5.7617q-1.7578-0.708-3.2715-1.1475-1.5137-0.4638-3.0274-0.4638-5.8105 0-5.8105 8.2519 0 8.0078 5.8105 8.0078 2.1484 0 3.9795-0.5615 1.831-0.5859 3.6621-1.8066v6.372q-1.8066 1.1475-3.6621 1.5869-1.8311 0.4395-4.6387 0.4395z"/><path d="m249.91 1030.5q-12.744 0-12.744-13.989 0-6.958 3.4668-10.62 3.4668-3.6865 9.9365-3.6865 4.7363 0 8.4961 1.8555l-2.1973 5.7617q-1.7578-0.708-3.2715-1.1475-1.5137-0.4638-3.0273-0.4638-5.8106 0-5.8106 8.2519 0 8.0078 5.8106 8.0078 2.1484 0 3.9795-0.5615 1.8311-0.5859 3.6621-1.8066v6.372q-1.8066 1.1475-3.6621 1.5869-1.831 0.4395-4.6387 0.4395z"/><path d="m270.44 1016.3q0 4.0528 1.3184 6.128 1.3428 2.0752 4.3457 2.0752 2.9785 0 4.2725-2.0508 1.3184-2.0752 1.3184-6.1524 0-4.0527-1.3184-6.0791-1.3184-2.0263-4.3213-2.0263-2.9785 0-4.2969 2.0263-1.3184 2.002-1.3184 6.0791zm18.872 0q0 6.6651-3.5156 10.425-3.5156 3.7598-9.79 3.7598-3.9307 0-6.9336-1.709-3.0029-1.7334-4.6143-4.956-1.6113-3.2227-1.6113-7.5196 0-6.6894 3.4912-10.4 3.4912-3.7109 9.8145-3.7109 3.9307 0 6.9336 1.709t4.6143 4.9072q1.6113 3.1983 1.6113 7.4951z"/><path d="m319.9 1030h-7.4463v-15.942c0-1.9694-0.33366-3.4424-1.001-4.4189-0.65104-0.9929-1.6846-1.4893-3.1006-1.4893-1.9043 0-3.2878 0.6999-4.1504 2.0996s-1.2939 3.7028-1.2939 6.9092v12.842h-7.4463v-27.295h6.7175l-0.028 3.4912h0.41504c0.73243-1.2533 1.7904-2.2298 3.1738-2.9297 1.3835-0.7161 2.9704-1.0742 4.7607-1.0742 4.0853 0 6.8522 1.3346 8.3008 4.0039h0.65918c0.73243-1.2695 1.8066-2.2542 3.2227-2.9541 1.4323-0.6999 3.0436-1.0498 4.834-1.0498 3.0924 0 5.4281 0.7975 7.0068 2.3926 1.595 1.5787 2.3926 4.1178 2.3926 7.6172v17.798h-7.4707v-15.942c0-1.9694-0.33366-3.4424-1.001-4.4189-0.65104-0.9929-1.6846-1.4893-3.1006-1.4893-1.8229 0-3.1901 0.6511-4.1016 1.9532-0.89518 1.3021-1.3428 3.3691-1.3428 6.2011z"/><rect x="151.92" y="992.12" width="7.5032" height="6.2423"/></g><rect x="233.81" y="1014.8" width="7.8125" height="8.75" fill="#fff"/></g></svg>
